<svg width="32" height="32" viewBox="0 0 32 32" fill="none" xmlns="http://www.w3.org/2000/svg">
<circle cx="16" cy="16" r="16" fill="#B9E6FF"/>
<path d="M17.24 19.62L13.83 20.35C13.6971 20.3646 13.5629 20.3646 13.43 20.35C12.957 20.3541 12.5025 20.1665 12.17 19.83C11.7427 19.3917 11.5659 18.7672 11.7 18.17L12.43 14.77C12.5851 14.1014 12.9328 13.493 13.43 13.02L19.13 7.32H10.13C9.01465 7.30644 7.94101 7.74354 7.15228 8.53227C6.36354 9.32101 5.92645 10.3946 5.94 11.51V21.86C5.94 24.1465 7.79354 26 10.08 26H20.44C22.7265 26 24.58 24.1465 24.58 21.86V13.07L19 18.66C18.5195 19.1448 17.9077 19.4785 17.24 19.62Z" fill="#6E74FF"/>
<path fill-rule="evenodd" clip-rule="evenodd" d="M20.77 7.11C21.9273 5.78226 23.9367 5.63078 25.28 6.77C25.843 7.41827 26.1238 8.26457 26.06 9.12083C25.9961 9.97709 25.5929 10.7724 24.94 11.33L18.27 18C17.9182 18.3327 17.4767 18.5552 17 18.64L13.62 19.4C13.3419 19.4811 13.0419 19.3992 12.8435 19.1882C12.6451 18.9771 12.5819 18.6725 12.68 18.4L13.41 15C13.5215 14.5369 13.7606 14.1142 14.1 13.78L20.77 7.11ZM21.18 11.77L23.42 9.53C23.6954 9.23449 23.6872 8.77399 23.4016 8.48838C23.116 8.20276 22.6555 8.19464 22.36 8.47L20.12 10.71C19.8275 11.0028 19.8275 11.4772 20.12 11.77C20.4128 12.0625 20.8872 12.0625 21.18 11.77Z" fill="#6E74FF"/>
</svg>
