<svg width="16" height="16" viewBox="0 0 16 16" fill="none" xmlns="http://www.w3.org/2000/svg">
<path d="M13.1459 12.2605L8.88342 8.00032L13.1459 3.77151C13.3596 3.5241 13.348 3.15282 13.1194 2.91938C12.8908 2.68593 12.5222 2.66902 12.2735 2.88057L7.99851 7.07802L3.79831 2.8492C3.55525 2.60593 3.16269 2.60593 2.91963 2.8492C2.80166 2.96701 2.7353 3.12737 2.7353 3.29467C2.7353 3.46196 2.80166 3.62233 2.91963 3.74014L7.1136 7.96268L2.85108 12.1852C2.73311 12.303 2.66675 12.4634 2.66675 12.6307C2.66675 12.798 2.73311 12.9584 2.85108 13.0762C2.96869 13.1936 3.1279 13.2591 3.29354 13.2581C3.45614 13.2591 3.61269 13.1961 3.72976 13.0824L7.99851 8.84734L12.2735 13.1515C12.3911 13.2689 12.5503 13.3344 12.716 13.3334C12.8794 13.3327 13.0361 13.2674 13.1522 13.1515C13.2693 13.0328 13.3346 12.872 13.3334 12.7047C13.3322 12.5374 13.2647 12.3775 13.1459 12.2605Z" fill="white"/>
</svg>
