<svg width="32" height="32" viewBox="0 0 32 32" fill="none" xmlns="http://www.w3.org/2000/svg">
<circle cx="16" cy="16" r="16" fill="#FFE7B9"/>
<path fill-rule="evenodd" clip-rule="evenodd" d="M10 8H22C24.2091 8 26 9.79086 26 12V21C26 23.2091 24.2091 25 22 25H10C7.79086 25 6 23.2091 6 21V12C6 9.79086 7.79086 8 10 8ZM17.4 17.55L23.74 12.85C24.0229 12.642 24.0854 12.2448 23.88 11.96C23.7821 11.824 23.6333 11.7335 23.4675 11.709C23.3017 11.6845 23.1331 11.7281 23 11.83L16.59 16.5C16.4296 16.6681 16.2074 16.7633 15.975 16.7633C15.7426 16.7633 15.5204 16.6681 15.36 16.5L9 11.83C8.86758 11.7313 8.70127 11.6896 8.53795 11.714C8.37463 11.7384 8.2278 11.8269 8.13 11.96C7.92242 12.2422 7.98036 12.6389 8.26 12.85L14.56 17.5C14.952 17.8719 15.4697 18.0825 16.01 18.09C16.5245 18.0899 17.0204 17.8973 17.4 17.55Z" fill="#6E74FF"/>
</svg>
