<svg width="13" height="13" viewBox="0 0 13 13" fill="none" xmlns="http://www.w3.org/2000/svg">
<path fill-rule="evenodd" clip-rule="evenodd" d="M8.59716 5.15037L7.84966 4.40287L4.40304 7.8495L5.15054 8.597L8.59716 5.15037ZM10.665 2.33425C10.0312 1.7005 9.19922 1.38281 8.36722 1.38281C7.53522 1.38281 6.70404 1.7005 6.06947 2.33425L4.74429 3.65944L5.49097 4.40694L6.81616 3.08175C7.23054 2.66738 7.78141 2.43906 8.36722 2.43906C8.95304 2.43906 9.50391 2.66738 9.91829 3.08175C10.3327 3.49612 10.561 4.047 10.561 4.63281C10.561 5.21863 10.3327 5.77031 9.91829 6.18388L8.5931 7.50906L9.3406 8.25575L10.665 6.93056C11.9341 5.66144 11.9341 3.60419 10.665 2.33425ZM7.44422 8.65794L8.19091 9.40462L6.93072 10.6656C6.29616 11.2994 5.46497 11.6171 4.63297 11.6171C3.80097 11.6171 2.96897 11.2994 2.33441 10.6656C1.06529 9.3965 1.06529 7.33763 2.33441 6.06931L3.59541 4.80912L4.3421 5.55581L3.08191 6.816C2.66754 7.23038 2.43922 7.78125 2.43922 8.36706C2.43922 8.95369 2.66754 9.50375 3.08191 9.91813C3.49629 10.3325 4.04635 10.5608 4.63297 10.5608C5.21879 10.5608 5.76966 10.3325 6.18404 9.91813L7.44422 8.65794Z" fill="#3E404C"/>
</svg>
