<svg width="60" height="59" viewBox="0 0 60 59" fill="none" xmlns="http://www.w3.org/2000/svg">
<path d="M15.3817 44.3703C15.043 44.3005 14.8687 44.0533 14.8929 43.6524C14.9334 43.0241 15.0038 42.3992 15.072 41.771C15.2888 39.7472 14.7681 37.9162 13.6419 36.244C12.9801 35.2597 12.0438 34.6358 10.9266 34.2694C10.6585 34.1808 10.3893 34.0975 10.1163 34.0191C9.87213 33.9493 9.64826 33.8754 9.71695 33.542C9.74058 33.4273 9.61782 33.4159 9.55617 33.3643C9.42754 33.26 9.34387 33.1398 9.39558 32.9698C9.45217 32.7896 9.59251 32.7157 9.77301 32.7167C10.087 32.7175 10.4014 32.7433 10.7155 32.7302C12.2186 32.6674 13.3804 31.8864 14.4577 30.9351C15.8201 29.734 16.7261 28.2108 17.5385 26.6156C17.6795 26.336 17.8413 26.0635 17.9828 25.7813C18.1806 25.3884 18.5391 25.3621 18.9031 25.3899C19.2287 25.4153 19.2949 25.7013 19.3661 25.9495C19.5979 26.7674 19.6362 27.6205 19.7986 28.4519C20.0429 29.6949 20.3889 30.9033 21.0319 32.0061C21.6997 33.1501 22.6453 33.9176 23.961 34.211C24.288 34.2839 24.611 34.3894 24.9243 34.5151C25.3041 34.6684 25.2863 34.8899 25.0473 35.2132C24.7944 35.5503 24.4613 35.6152 24.1078 35.698C21.4453 36.3144 19.4699 37.8868 17.9495 40.098C17.4815 40.7772 17.0156 41.4597 16.5353 42.1309C16.391 42.3319 16.3892 42.5567 16.3543 42.7803C16.2867 43.1889 16.2166 43.5971 16.0184 43.9649C15.8737 44.2354 15.6597 44.397 15.3854 44.3655L15.3817 44.3703Z" fill="#F9FFB9"/>
<path d="M27.8193 44.5503C27.712 44.531 27.6048 44.5117 27.516 44.4433C27.3964 44.3492 27.3202 44.2334 27.3494 44.0782C27.378 43.9395 27.4815 43.8552 27.6163 43.8218C29.797 43.3175 31.0181 41.7898 31.8715 39.861C32.4072 38.6508 32.5632 37.354 32.7746 36.0714C32.8819 35.429 32.9972 34.7883 33.0966 34.1443C33.1559 33.7618 33.3677 33.4357 33.4835 33.0759C33.5433 32.8936 33.6866 32.7785 33.8839 32.8192C34.0946 32.8626 34.1502 33.038 34.1315 33.2233C34.0375 34.1519 34.0449 35.0876 33.9257 36.0167C33.6931 37.8203 33.61 39.627 33.9333 41.4312C34.103 42.3753 34.5675 43.0493 35.5529 43.2996C36.044 43.4258 36.5406 43.4308 37.037 43.4775C37.1976 43.4939 37.3626 43.5029 37.5227 43.522C37.5958 43.5315 37.6705 43.5469 37.6988 43.6389C37.756 43.8203 37.3419 44.3188 37.146 44.2979C36.5061 44.2328 35.8745 44.2082 35.2359 44.3658C34.7177 44.4926 34.3719 44.8078 34.1184 45.2421C33.7063 45.9468 33.3363 46.6768 33.1234 47.467C32.9662 48.0546 32.9429 48.667 32.885 49.2722C32.814 49.9944 32.7067 50.7174 32.6769 51.4424C32.6453 52.2032 32.5405 52.9545 32.5147 53.7138C32.507 53.9401 32.5094 54.1714 32.4286 54.3883C32.3581 54.5684 32.2621 54.7376 32.04 54.7225C31.8014 54.7067 31.7107 54.5128 31.6937 54.3119C31.6721 54.0656 31.6854 53.8126 31.7028 53.5659C31.8198 51.9859 32.0575 50.414 32.0096 48.825C31.9834 48.0078 31.9064 47.194 31.5936 46.4317C31.0328 45.0651 29.9758 44.4331 28.5001 44.5655C28.2709 44.585 28.0454 44.5997 27.8182 44.5557L27.8193 44.5503Z" fill="#B9E6FF"/>
<path d="M42.931 19.2699C42.9841 18.7831 43.0285 18.2974 43.0922 17.8129C43.1313 17.5151 43.1444 17.1953 43.444 17.0096C43.556 16.9382 43.6792 16.8802 43.8079 16.9706C43.9223 17.0498 43.9152 17.1651 43.9 17.2926C43.6826 19.4136 44.0142 21.4475 44.905 23.3853C45.1355 23.886 45.5257 24.1777 46.0666 24.2919C46.2559 24.3309 46.4258 24.3159 46.6062 24.2502C46.8529 24.1592 47.1106 24.1095 47.3657 24.2343C47.4791 24.291 47.5614 24.3775 47.5649 24.5089C47.5674 24.6317 47.4921 24.7135 47.375 24.7422C46.8124 24.8821 46.407 25.2712 45.9974 25.6399C44.5763 26.9235 43.6923 28.529 43.2127 30.3708C43.1488 30.6134 43.0588 30.8479 42.9235 31.0591C42.8659 31.1501 42.7878 31.2591 42.6679 31.2205C42.5607 31.1873 42.5011 31.0721 42.4964 30.96C42.4907 30.7447 42.5106 30.5264 42.5103 30.3123C42.5114 29.2811 42.3453 28.2793 41.9295 27.329C41.7155 26.8428 41.4376 26.4103 40.9478 26.1564C40.8551 26.1068 40.775 26.0235 40.6958 25.9489C40.0771 25.3626 39.3165 25.1003 38.4948 24.9866C38.2435 24.9515 37.9273 24.9475 37.9158 24.6393C37.9055 24.298 38.2611 24.299 38.4837 24.3115C38.945 24.3398 39.2965 24.1314 39.6493 23.89C40.7822 23.1142 41.8238 22.2556 42.4213 20.9747C42.6754 20.4294 42.8278 19.8519 42.9327 19.2618L42.931 19.2699ZM39.9732 24.4905C41.8781 25.2305 42.5495 26.7617 42.7594 28.6983C43.3638 27.1547 44.2765 25.9498 45.4927 24.9049C44.8111 24.745 44.4061 24.3223 44.1323 23.7488C43.9439 23.3541 43.8026 22.9469 43.686 22.5281C43.5546 22.059 43.4212 21.5866 43.2779 21.0678C42.5746 22.6188 41.414 23.6641 39.9732 24.4905V24.4905Z" fill="white"/>
<path d="M29.4957 14.7835C29.4027 14.8978 29.3032 14.9218 29.2108 14.925C28.7531 14.9336 28.4503 15.202 28.1666 15.5133C27.4523 16.2947 26.9924 17.2314 26.5304 18.1649C26.3499 18.5281 26.2228 18.9022 26.159 19.3061C26.1202 19.5622 26.0477 19.8197 25.7983 19.9908C25.6729 19.7898 25.6636 19.5654 25.6392 19.3463C25.5981 18.9792 25.5714 18.6095 25.527 18.2445C25.3701 16.9416 24.6385 16.107 23.4105 15.6983C23.1349 15.6054 22.8795 15.4554 22.5811 15.419C22.4563 15.4044 22.3622 15.3211 22.34 15.1858C22.3157 15.0474 22.3878 14.9538 22.5051 14.8973C23.4835 14.44 24.0033 13.5768 24.4827 12.6803C24.8315 12.0265 25.0075 11.3205 25.0529 10.5875C25.0757 10.2475 25.2407 9.97286 25.3652 9.67879C25.453 9.46889 25.714 9.48376 25.819 9.70279C25.8929 9.85702 25.9293 10.0313 25.9667 10.2003C26.1132 10.8254 26.2516 11.4489 26.398 12.074C26.6983 13.3425 27.5061 14.1039 28.7518 14.4273C29.0157 14.4956 29.2569 14.6203 29.4957 14.7835V14.7835ZM25.6103 11.8089C25.3937 13.1432 24.6743 14.1655 23.7003 15.0741C24.8597 15.452 25.7446 16.0958 26.1229 17.3359C26.5158 16.3464 27.0391 15.534 27.7823 14.8281C26.3696 14.3035 25.9462 13.093 25.6129 11.8094L25.6103 11.8089Z" fill="white"/>
<path d="M50.1735 39.267C50.0946 39.5288 50.0466 39.8831 49.8452 39.8889C49.6161 39.8945 49.4914 39.5685 49.4389 39.3242C49.2616 38.4981 49.3417 37.6638 49.385 36.8331C49.3962 36.6436 49.5421 36.5291 49.7404 36.5116C49.9268 36.4972 50.0475 36.5999 50.1267 36.7552C50.1568 36.8115 50.1735 36.8788 50.1801 36.9414C50.2732 37.7307 50.2558 38.5167 50.1735 39.267V39.267Z" fill="white"/>
<path d="M38.4659 8.97507C38.3566 9.22222 38.3658 9.56887 38.0934 9.56836C37.8654 9.56864 37.7952 9.24834 37.7387 9.03654C37.523 8.19419 37.5686 7.33894 37.6744 6.48777C37.6997 6.28445 37.8409 6.1523 38.0545 6.15461C38.2761 6.15856 38.3905 6.31834 38.4086 6.5139C38.4935 7.34321 38.4887 8.17629 38.4659 8.97507Z" fill="white"/>
<path d="M37.6774 11.1424C36.8862 11.6494 36.0925 11.5888 35.3033 11.5596C35.2067 11.5564 35.1096 11.5419 35.0147 11.5168C34.8142 11.4644 34.6905 11.3361 34.6869 11.124C34.6817 10.92 34.8149 10.7862 34.9898 10.7471C35.7619 10.5754 36.5211 10.6011 37.241 10.9663C37.3646 11.0279 37.466 11.1295 37.6768 11.1451L37.6774 11.1424Z" fill="white"/>
<path d="M46.4234 41.5859C46.2181 41.5436 46.1021 41.4724 46.049 41.3253C45.9896 41.1546 46.0375 41.0032 46.1531 40.8741C46.2896 40.7243 46.4732 40.6564 46.6635 40.6095C47.1855 40.4779 47.7102 40.4415 48.2282 40.626C48.4094 40.6912 48.6116 40.8024 48.6133 40.9834C48.6165 41.1703 48.3933 41.255 48.2199 41.3138C47.8464 41.4398 47.4533 41.445 47.066 41.4764C46.8282 41.497 46.6075 41.61 46.4208 41.5854L46.4234 41.5859Z" fill="white"/>
<path d="M50.5261 43.8436C50.4892 44.0361 50.4281 44.2654 50.3174 44.4789C50.2672 44.5742 50.2067 44.6924 50.0877 44.6763C49.9713 44.6606 49.9293 44.5408 49.8952 44.4364C49.8029 44.1561 49.757 43.8658 49.7566 43.571C49.7557 43.1705 49.7575 42.7705 49.7011 42.3697C49.6692 42.1463 49.7217 41.9458 49.9709 41.8831C50.2437 41.8142 50.3804 42.0008 50.4469 42.2175C50.6047 42.7338 50.6123 43.2636 50.5299 43.8388L50.5261 43.8436Z" fill="white"/>
<path d="M39.5055 10.9324C39.3844 10.913 39.2682 10.8835 39.1693 10.8103C38.9533 10.6574 38.9636 10.3509 39.2154 10.3027C39.9051 10.1668 40.5992 10.0095 41.3103 10.1477C41.4863 10.184 41.7214 10.2574 41.7224 10.455C41.722 10.619 41.5051 10.7133 41.3424 10.7743C40.7457 10.9989 40.1285 10.9718 39.5087 10.9303L39.5055 10.9324Z" fill="white"/>
<path d="M11.0069 20.9661C10.793 20.9248 10.6851 20.8414 10.6561 20.6853C10.6229 20.5089 10.7124 20.3716 10.867 20.3229C11.4614 20.1367 12.0666 20.0195 12.6914 20.1177C12.8797 20.1481 13.1007 20.2632 13.1174 20.4251C13.1349 20.6233 12.9057 20.7373 12.7205 20.7993C12.1437 20.9946 11.5401 20.9286 11.0075 20.9634L11.0069 20.9661Z" fill="white"/>
<path d="M39.1382 13.6731C39.0613 13.9519 39.0129 14.2811 38.7395 14.286C38.5077 14.291 38.4492 13.9676 38.396 13.7537C38.2743 13.2782 38.2494 12.7921 38.3275 12.305C38.3641 12.0734 38.4747 11.8738 38.7416 11.8871C39.0139 11.9015 39.0837 12.116 39.0903 12.3537C39.1027 12.8066 39.2015 13.258 39.1382 13.6731Z" fill="white"/>
<path d="M9.76857 18.7454C9.75428 18.8147 9.74769 18.8467 9.74109 18.8787C9.70185 19.0152 9.66991 19.1838 9.51545 19.2048C9.37543 19.2232 9.30101 19.0716 9.24345 18.9597C8.96624 18.416 8.93071 17.8193 8.88608 17.2263C8.87168 17.0398 8.99376 16.8926 9.1963 16.8676C9.40151 16.8431 9.53587 16.9737 9.57969 17.1523C9.71171 17.6855 9.84795 18.2252 9.76802 18.748L9.76857 18.7454Z" fill="white"/>
<path d="M10.0749 23.5738C10.0302 23.723 10.004 24.0123 9.82663 24.023C9.60706 24.0362 9.5591 23.7427 9.50681 23.5512C9.37933 23.0635 9.39399 22.5605 9.35202 22.0625C9.33855 21.8985 9.42533 21.7607 9.60811 21.7372C9.79033 21.7163 9.87825 21.8429 9.94522 21.9901C10.0854 22.3081 10.1634 23.1444 10.0754 23.5711L10.0749 23.5738Z" fill="white"/>
<path d="M51.5311 40.8145C51.3209 40.7823 51.221 40.7006 51.1978 40.5568C51.174 40.4157 51.2346 40.2835 51.362 40.232C51.8989 40.0145 52.4472 39.8634 53.0303 40.0558C53.1475 40.0938 53.2545 40.1687 53.2697 40.2969C53.2844 40.4417 53.1538 40.4955 53.0488 40.5461C52.5465 40.7846 52.0023 40.7809 51.5279 40.8166L51.5311 40.8145Z" fill="white"/>
<path d="M6.51021 21.5521C6.31552 21.512 6.19418 21.4397 6.17216 21.2767C6.15171 21.1195 6.21237 20.9736 6.36424 20.9381C6.94074 20.7984 7.51912 20.609 8.12145 20.8026C8.21527 20.833 8.32352 20.8609 8.33998 20.9699C8.35541 21.0704 8.25798 21.1115 8.184 21.1602C7.65972 21.5053 7.05571 21.5088 6.507 21.5542L6.51021 21.5521Z" fill="white"/>
</svg>
