<svg width="48" height="66" viewBox="0 0 48 66" fill="none" xmlns="http://www.w3.org/2000/svg">
<path d="M44.4076 24.3689C43.3479 23.1634 42.4147 21.9029 41.8508 20.3831C41.6596 19.8679 41.5106 19.3396 41.3939 18.8082C41.5106 17.7194 41.4231 16.6111 41.1282 15.5514C41.0504 15.2695 40.8689 15.0946 40.6583 15.02L40.6518 14.8126C40.6194 13.8696 39.3718 13.7497 39.0607 14.5987C38.3705 16.4815 37.6802 18.361 36.9868 20.2437C36.6984 21.0312 36.3646 21.8219 36.1021 22.6223C35.7554 23.0436 35.3795 23.4454 34.9744 23.8213C34.6212 24.1486 34.6665 24.8809 35.1397 25.0948C35.2466 25.1434 35.3536 25.192 35.4605 25.2407C35.4151 25.6068 35.5966 25.8985 35.8591 26.0508C36.4488 28.4099 36.653 30.8403 36.4748 33.2739C36.41 34.1716 37.9168 34.3951 38.0659 33.4878C38.6394 30.001 40.9921 27.0229 44.2423 25.6425C44.7576 25.4254 44.7089 24.7156 44.4076 24.3689V24.3689ZM42.3239 24.3819C42.3985 24.4758 42.473 24.5731 42.5507 24.6671C42.4438 24.7254 42.3336 24.7837 42.2299 24.8421C42.2656 24.6898 42.298 24.5342 42.3239 24.3819Z" fill="#FFE7B9"/>
<path d="M21.2702 43.407C20.149 41.5048 19.193 39.5054 18.5093 37.4056C18.2695 36.6765 18.0718 35.9376 17.9033 35.1923C18.0945 34.5182 18.2565 33.8345 18.357 33.154C18.5838 31.6439 18.357 29.5635 16.6103 29.1066C16.6038 29.0353 16.5974 28.9608 16.5909 28.8895C16.552 28.5298 16.3641 28.2089 15.9946 28.1085C15.6641 28.0177 15.2396 28.1636 15.0808 28.4812C14.8313 28.9802 14.6077 29.5019 14.6595 30.069C14.6952 30.4416 14.8507 30.7851 15.11 31.0314C15.1326 31.7735 15.1197 32.5189 15.084 33.2609C14.7438 34.9039 14.5072 36.5695 14.3744 38.2416C14.3484 38.342 14.3193 38.4457 14.2901 38.5462C14.0049 38.5202 13.7036 38.6272 13.5221 38.9156C12.78 40.0822 12.3037 41.4043 12.1092 42.7653C12.0542 42.9014 11.9991 43.0375 11.9407 43.1704C11.8111 43.2028 11.6815 43.2644 11.5616 43.3681C10.8519 43.9611 10.2459 44.6903 9.79875 45.4972C9.5784 45.8957 9.39368 46.317 9.24137 46.7447C9.1798 46.9197 9.10526 47.1174 9.05342 47.3248C8.83954 47.4868 8.603 47.6164 8.33727 47.7071C7.89656 47.8594 7.51742 48.4493 7.85444 48.8965C8.97242 50.3839 10.0904 51.8745 11.2084 53.3619C11.2408 53.592 11.2667 53.8253 11.3056 54.0554C11.3769 54.4928 11.7755 54.6678 12.1578 54.6257C12.5208 55.1085 12.8837 55.5914 13.2467 56.0742C13.3763 56.2459 13.5318 56.3496 13.6939 56.4015C13.8202 56.6543 13.9466 56.9103 14.0698 57.1663C14.0795 57.2181 14.0957 57.2667 14.1151 57.3121C14.1313 57.3737 14.1508 57.4384 14.167 57.5C14.2059 57.6588 14.2869 57.7787 14.3938 57.8727C14.9479 59.0847 15.447 60.3225 15.8909 61.5831C16.1534 62.3317 17.2034 62.3705 17.4529 61.5831C18.1399 59.4022 19.0245 57.2926 20.1036 55.277C20.6415 54.2725 21.2281 53.2906 21.8567 52.3411C22.4724 51.4111 23.1691 50.4972 23.4802 49.4052C24.1348 47.1012 22.3623 45.2443 21.2767 43.4037L21.2702 43.407ZM16.364 58.3588C16.5455 58.3361 16.714 58.2583 16.8372 58.1287C16.8858 58.1287 16.9344 58.1287 16.9797 58.1222C16.8598 58.4139 16.7432 58.7088 16.633 59.0069C16.5455 58.7898 16.4548 58.5759 16.364 58.362V58.3588ZM21.066 46.1161C21.0077 46.1161 20.9461 46.1226 20.8878 46.1355C20.7841 46.0318 20.6772 45.9282 20.5767 45.8245L20.2494 44.8361C20.4471 45.1569 20.6415 45.4777 20.8489 45.7953C20.917 45.9022 20.9915 46.0091 21.066 46.1193V46.1161Z" fill="#C3B9FF"/>
<path d="M6.33791 12.7905C5.75462 10.5254 5.17458 8.26028 4.59129 5.99192C4.39685 5.23363 3.20758 5.20447 3.02935 5.99192C2.74094 7.26868 2.48495 8.55197 2.26459 9.8417C2.15765 10.4606 2.06043 11.0796 1.97294 11.7018C1.94701 11.88 1.92433 12.0582 1.89841 12.2364C1.77203 12.4017 1.72342 12.6091 1.73638 12.8359C1.50631 12.9623 1.32483 13.1859 1.26326 13.4613C1.15308 13.9377 1.39288 14.4595 1.8336 14.6377L1.93405 14.8386C1.81415 14.9747 1.7299 15.1529 1.71045 15.3571C1.56787 16.8801 2.12848 18.3902 3.16545 19.5017C3.65153 20.0234 4.54592 19.6119 4.54916 18.9281V18.5004C4.75655 18.3708 4.90237 18.1504 4.88616 17.849C4.8732 17.606 4.86349 17.3662 4.85052 17.1232C4.92181 16.9644 5.00607 16.8121 5.11301 16.6663C5.36901 16.313 5.7125 16.0894 6.04628 15.8172C6.47079 15.4737 6.73327 15.0103 6.72031 14.453C6.70735 13.8988 6.4805 13.3187 6.34116 12.784L6.33791 12.7905ZM3.82328 10.7684C3.8006 10.7684 3.77466 10.762 3.75198 10.762C3.78763 10.5481 3.81679 10.331 3.85568 10.1171C3.87188 10.0231 3.89132 9.93243 3.90752 9.83846C3.98529 10.1398 4.06307 10.4445 4.14085 10.7458C4.03391 10.7361 3.92698 10.7425 3.82328 10.7684V10.7684Z" fill="#CFFFB9"/>
<path d="M16.6428 66C15.7776 65.219 15.2883 64.2015 14.8411 63.1548C13.3245 59.6064 11.5973 56.1682 9.40349 52.9828C8.56096 51.7578 7.68278 50.5556 6.62961 49.4927C6.29583 49.1557 6.3088 48.9613 6.65878 48.634C6.68794 48.6081 6.74626 48.5822 6.74626 48.5627C6.68469 47.9989 7.17725 47.7655 7.45594 47.422C10.9168 43.1672 13.1884 38.3583 14.2416 32.9725C14.6855 30.6977 15.042 28.4131 15.3142 26.1123C15.3207 26.0605 15.3239 26.0087 15.3337 25.9568C15.4179 25.3897 15.6545 25.0818 16.0563 25.017C16.4419 24.9554 16.7757 25.205 17.0187 25.7073C17.6182 26.9387 17.7576 28.2835 17.9682 29.6121C18.4932 32.9207 19.0181 36.2293 20.0648 39.4277C21.0564 42.4608 22.5957 45.1634 24.8608 47.4383C25.1816 47.7591 25.5932 47.7785 25.9367 47.9891C26.0728 48.0734 26.2866 48.0507 26.2834 48.2807C26.2834 48.4817 26.0922 48.4914 25.9464 48.54C26.0792 48.7604 26.1927 48.9645 26.17 49.2108C26.1246 49.7261 25.632 50.0145 25.1395 49.7714C24.8835 49.645 24.7863 49.726 24.6437 49.9075C22.9133 52.0657 21.5004 54.4248 20.2269 56.8714C18.9598 59.305 17.9261 61.8391 16.9863 64.4153C16.86 64.7588 16.9183 65.0861 17.0187 65.394C17.1159 65.6889 17.0609 65.8639 16.8016 66H16.6461H16.6428ZM7.60825 48.809C11.6492 52.6911 14.0601 57.5746 16.2831 62.6266C16.3253 62.4807 16.3512 62.3835 16.3804 62.2863C17.2521 59.292 18.5483 56.4793 20.1167 53.7961C21.1342 52.056 22.1744 50.3255 23.5549 48.8349C23.7136 48.6631 23.6002 48.6049 23.4998 48.5012C21.2735 46.2587 19.7213 43.5982 18.6649 40.6396C17.4303 37.1852 16.847 33.5882 16.335 29.975C16.322 29.8908 16.3868 29.7579 16.2054 29.7287C16.0628 30.5324 15.9234 31.3296 15.7841 32.13C14.9934 36.6506 13.4898 40.8956 10.9525 44.7454C9.9706 46.2328 9.0114 47.7429 7.60501 48.8058L7.60825 48.809Z" fill="white"/>
<path d="M47.4084 25.9114C47.0357 25.8434 46.7246 26.0767 46.3844 26.1771C45.3571 26.4818 44.359 26.8674 43.4063 27.3664C41.7569 28.2251 40.7718 29.6316 40.0848 31.3069C39.2552 33.329 38.7983 35.4483 38.3932 37.5838C38.3252 37.9402 38.2507 38.2935 38.1534 38.6434C38.0109 39.1587 37.6641 39.4471 37.2655 39.4115C36.841 39.3726 36.5559 39.0161 36.5267 38.4652C36.4457 37.0037 36.3938 35.5423 36.2901 34.0841C36.1087 31.5111 35.7814 28.9608 34.793 26.5466C34.725 26.3781 34.6699 26.1999 34.5726 26.0508C34.1514 25.4254 34.2778 24.7935 34.5467 24.1713C35.13 22.8329 35.7619 21.5173 36.3193 20.1692C37.6998 16.8347 38.6104 13.3674 39.2487 9.82223C39.2811 9.644 39.3233 9.46898 39.3848 9.29723C39.5015 8.95697 39.7413 8.74962 40.1107 8.7723C40.4769 8.79499 40.707 9.0315 40.775 9.37824C40.8366 9.69257 40.8528 10.0199 40.8722 10.3407C41.0472 13.2378 41.4134 16.1056 42.2462 18.8989C42.7485 20.584 43.5845 22.0552 44.8613 23.2704C45.1044 23.5037 45.3442 23.7403 45.5775 23.9801C45.6877 24.0902 45.8464 24.1972 45.8788 24.3301C46.0927 25.1888 46.8478 24.9879 47.4181 25.1467C47.4311 25.1499 47.444 25.1467 47.457 25.1467C47.7389 25.1467 47.9884 25.2083 48.0046 25.5517C48.0143 25.7915 47.794 25.9147 47.4084 25.9018V25.9114ZM39.6181 13.6914C39.576 13.8145 39.5598 13.8567 39.5501 13.9021C38.6622 17.5606 37.4113 21.0831 35.5092 24.3463C35.2758 24.7481 35.1559 25.0235 35.5545 25.3703C35.723 25.5161 35.8105 25.7559 35.924 25.9568C36.6304 27.253 37.0257 28.6562 37.3012 30.0982C37.5086 31.1838 37.6414 32.2791 37.7322 33.4295C37.7872 33.3614 37.8229 33.3387 37.8294 33.3095C38.0465 32.4411 38.3705 31.6115 38.6881 30.7787C39.6084 28.3807 41.1704 26.5984 43.591 25.6328C43.941 25.4934 44.2942 25.3703 44.6734 25.2277C42.8976 23.9801 41.7277 22.3242 40.9889 20.3539C40.4801 18.9929 40.1723 17.5768 39.9454 16.1445C39.8223 15.357 39.7348 14.5631 39.6181 13.6914V13.6914Z" fill="white"/>
<path d="M8.01332 13.808C8.00684 14.009 7.94203 14.1936 7.82861 14.3524C6.71063 15.9014 6.19213 17.7097 5.63152 19.4984C5.10008 21.1803 4.73715 22.8977 4.533 24.6508C4.46819 25.1952 4.17004 25.5096 3.74553 25.4934C3.32103 25.4772 3.04559 25.1467 3.0229 24.599C2.92893 22.1589 2.5822 19.7576 1.89521 17.4115C1.66513 16.6273 1.32811 15.8852 0.880922 15.1982C0.728617 14.9617 0.605485 14.696 0.281432 14.6376C0.249027 14.6312 0.216612 14.5954 0.190688 14.5695C-0.1042 14.2844 -0.049102 13.4807 0.300875 13.283C0.449939 13.1988 0.482335 13.0724 0.534183 12.9493C1.80123 9.96149 2.55626 6.84418 2.89652 3.6231C2.99373 2.69631 3.14281 1.77597 3.14929 0.839456C3.14929 0.761683 3.16548 0.683924 3.17844 0.609391C3.24973 0.22701 3.49278 -0.00634948 3.81684 0.000131575C4.15709 0.00661262 4.40985 0.272351 4.4455 0.664455C4.52651 1.51347 4.57188 2.36901 4.68529 3.21479C5.00935 5.62574 5.43709 8.01723 6.2213 10.331C6.55507 11.3161 7.012 12.2396 7.68927 13.0432C7.87722 13.2636 8.02304 13.5067 8.00683 13.8113L8.01332 13.808ZM3.73582 5.89463C3.70342 5.93351 3.69045 5.9433 3.68721 5.95626C3.25946 8.54544 2.53682 11.0471 1.47717 13.4483C1.42532 13.5617 1.43506 13.6266 1.51607 13.7205C2.40722 14.7316 2.91597 15.9403 3.30483 17.2106C3.57379 18.0823 3.73259 18.9799 3.94322 19.9586C4.01127 19.7252 4.0534 19.5761 4.102 19.4303C4.7015 17.5346 5.21998 15.6032 6.3412 13.9214C6.43841 13.7756 6.34768 13.7108 6.28287 13.6233C5.61856 12.7484 5.17137 11.7665 4.82139 10.7295C4.29319 9.16761 4.01127 7.55054 3.73582 5.89463Z" fill="white"/>
</svg>
