<svg width="36" height="36" viewBox="0 0 36 36" fill="none" xmlns="http://www.w3.org/2000/svg">
<g clip-path="url(#clip0_15_312)">
<path d="M18.0001 35.9996C17.8961 36.0008 17.7916 35.9987 17.6872 35.9969C17.6562 35.9983 17.6235 35.9975 17.5942 35.9989C17.5323 35.9989 17.4708 35.9958 17.4096 35.9899C11.4302 35.7961 6.17976 32.6723 3.04906 28.0126C3.0139 27.9739 2.98439 27.9299 2.96199 27.882C1.08612 25.0368 -0.00481736 21.63 0.000415468 17.9741C0.00732281 13.1662 1.88612 8.64882 5.2906 5.25418C8.56133 1.99287 12.8648 0.142752 17.4609 0.00837253C17.5222 0.00293039 17.5924 0.00669802 17.6459 0C17.6776 0 17.7092 0.000837253 17.7406 0.00251176C17.8358 0.00104657 17.9304 0.000837253 18.0256 0.00062794C22.8336 0.00732596 27.351 1.88612 30.7458 5.2906C34.1407 8.69508 36.0065 13.2179 35.9996 18.0258C35.9943 21.6779 34.8952 25.0787 33.0146 27.9172C32.9905 27.9709 32.9574 28.0197 32.9174 28.062C29.6789 32.8486 24.1993 35.9992 18.0001 35.9996ZM17.3895 34.9285C17.4906 34.9369 17.5922 34.943 17.6941 34.9472C18.689 34.84 19.7544 33.0903 20.5636 30.22C20.7417 29.5885 20.9041 28.9164 21.0508 28.2096L14.1605 28.1997C14.3049 28.9072 14.4656 29.5797 14.6419 30.2116C15.4138 32.98 16.4269 34.7085 17.3895 34.9285ZM22.1183 28.211C21.9557 29.0202 21.773 29.787 21.571 30.5038C21.0356 32.4029 20.3997 33.8292 19.6849 34.7519C22.5688 34.063 25.0883 31.6484 26.781 28.2177L22.1183 28.211ZM9.1899 28.1924C10.6787 31.2318 12.8173 33.478 15.2861 34.4383C14.6641 33.5163 14.1079 32.1936 13.6336 30.4925C13.4337 29.7752 13.2531 29.0075 13.093 28.1981L9.1899 28.1924ZM27.9211 28.2194C26.7777 30.6795 25.2344 32.6966 23.4332 34.0601C26.6774 32.9595 29.4841 30.9018 31.5146 28.2244L27.9211 28.2194ZM4.45628 28.1857C6.47929 30.8687 9.27948 32.9346 12.5203 34.0444C10.7231 32.6757 9.18592 30.6543 8.04935 28.1907L4.45628 28.1857ZM28.3726 27.1735L32.2476 27.1789C33.866 24.6755 34.8429 21.7204 34.9442 18.5475L30.062 18.5406C29.9969 21.6859 29.3886 24.6309 28.3726 27.1735ZM22.3132 27.1647L27.258 27.1718C28.3115 24.6676 28.948 21.7121 29.0154 18.5391L23.0406 18.5305C23.0109 21.6191 22.7593 24.5751 22.3132 27.1647ZM13.9627 27.153L21.2514 27.1634C21.7068 24.592 21.9639 21.6319 21.9938 18.529L13.2449 18.5165C13.2661 21.6193 13.5147 24.5801 13.9627 27.153ZM8.71601 27.1454L12.901 27.1513C12.4623 24.56 12.2193 21.6038 12.1986 18.515L6.98311 18.5075C7.0415 21.6807 7.66965 24.6381 8.71601 27.1454ZM3.7264 27.1381L7.60121 27.1435C6.59253 24.5981 5.99264 21.6516 5.93654 18.5058L1.05431 18.4991C1.14641 21.6723 2.1149 24.6301 3.7264 27.1381ZM30.0637 17.494L34.9459 17.5009C34.8599 14.5008 33.9977 11.633 32.4546 9.1292L28.5177 9.12376C29.4774 11.6564 30.0113 14.5152 30.0637 17.494ZM23.042 17.4839L29.0169 17.4925C28.9623 14.4918 28.4007 11.6259 27.3943 9.12208L22.3838 9.11496C22.7946 11.6412 23.0219 14.501 23.042 17.4839ZM13.2466 17.4699L21.9955 17.4825C21.9752 14.4866 21.7426 11.6232 21.3234 9.1135L13.9428 9.10282C13.5162 11.6112 13.2755 14.474 13.2466 17.4699ZM6.98478 17.4609L12.2 17.4684C12.2285 14.4855 12.4642 11.6263 12.8822 9.10115L8.63124 9.09508C7.61754 11.596 7.04778 14.4604 6.98478 17.4609ZM1.05556 17.4525L5.9378 17.4594C5.9985 14.4809 6.54083 11.6236 7.50785 9.09341L3.57088 9.08796C2.02071 11.5872 1.15038 14.4525 1.05556 17.4525ZM28.0882 8.07656L31.7537 8.08159C31.2304 7.35945 30.6466 6.67312 30.0048 6.02948C28.148 4.16743 25.9348 2.78973 23.518 1.96085C24.6531 2.82761 25.6989 3.97067 26.6182 5.36616C27.171 6.20593 27.6622 7.11372 28.0882 8.07656ZM22.1993 8.06798L26.9372 8.07489C26.5817 7.32261 26.1832 6.60928 25.7439 5.94198C24.0809 3.41662 21.9907 1.79863 19.7328 1.25295C20.4449 2.1779 21.0768 3.60584 21.6068 5.5064C21.8287 6.30221 22.0267 7.15956 22.1993 8.06798ZM14.1356 8.05647L21.1335 8.06651C20.9755 7.26066 20.7969 6.49855 20.5987 5.7873C19.7979 2.91594 18.7377 1.16357 17.7435 1.05222C17.6413 1.05599 17.5392 1.06185 17.4375 1.07001C16.4742 1.2879 15.4567 3.01327 14.677 5.77893C14.4767 6.48934 14.2959 7.25124 14.1356 8.05647ZM9.09131 8.04914L13.0695 8.05479C13.2449 7.14679 13.4452 6.29007 13.6694 5.4951C14.1487 3.79485 14.7087 2.47366 15.3337 1.55352C13.4511 2.279 11.7163 3.76848 10.2907 5.9198C9.84944 6.58583 9.44882 7.29813 9.09131 8.04914ZM4.27501 8.04244L7.94051 8.04747C8.36918 7.08588 8.86295 6.17976 9.41847 5.34167C10.3417 3.94849 11.3906 2.80857 12.5282 1.94494C10.1094 2.76712 7.89195 4.13833 6.02989 5.99515C5.38605 6.63711 4.80018 7.32157 4.27501 8.04244Z" fill="white"/>
</g>
<defs>
<clipPath id="clip0_15_312">
<rect width="36" height="36" fill="white"/>
</clipPath>
</defs>
</svg>
